<svg version="1.2" baseProfile="tiny-ps" xmlns="http://www.w3.org/2000/svg" viewBox="0 0 106 51" width="100" height="48">
	<title>landingPageCryptoC-svg</title>
	<style>
		tspan { white-space:pre }
		.shp0 { fill: #345d9d } 
		.shp1 { fill: #f7931a } 
		.shp2 { fill: #8a92b2 } 
		.shp3 { fill: #62688f } 
		.shp4 { fill: #454a75 } 
	</style>
	<g id="Layer">
		<path id="Layer" fill-rule="evenodd" class="shp0" d="M88.7 25.4C88.7 31.3 84 36 78.1 36C72.2 36 67.5 31.4 67.5 25.5C67.5 19.6 72.2 14.9 78.1 14.9C83.9 14.9 88.7 19.5 88.7 25.4ZM79.9 25.5L80.2 24.2L78.5 24.7L80.3 18.6C80.3 18.4 80.2 18.2 80 18.2L77.7 18.2C77.5 18.2 77.3 18.3 77.3 18.5L75.2 25.7L73.5 26.2L73.2 27.4L74.9 26.9L73.4 32L82.4 32C82.6 32 82.8 31.9 82.8 31.7L83.3 29.9C83.3 29.7 83.2 29.5 83 29.5L77.1 29.5L78.2 25.8L79.9 25.5Z" />
		<g id="Layer">
			<path id="Layer" class="shp1" d="M28 22.1L27.5 24.4C28.2 24.5 30.2 25.2 30.6 23.9C30.8 22.6 28.7 22.2 28 22.1Z" />
			<path id="Layer" class="shp1" d="M27.2 25.5L26.5 28C27.3 28.1 29.7 28.9 30.1 27.5C30.5 26.2 28 25.8 27.2 25.5Z" />
			<path id="Layer" fill-rule="evenodd" class="shp1" d="M38.1 28.1C36.8 33.7 30.9 37.2 25.3 35.7C19.7 34.4 16.2 28.5 17.7 22.9C19.2 17.3 25 13.8 30.7 15.3C36.3 16.6 39.8 22.3 38.1 28.1ZM30.6 21.2L31.1 19.3L29.9 19L29.4 20.9C29.2 20.7 28.8 20.6 28.5 20.6L29 18.7L27.8 18.4L27.3 20.3L26.6 20.2L25 19.8L24.7 21L25.4 21.2C25.8 21.2 25.9 21.6 25.9 21.9L25.4 24L25.5 24.1L25.4 24.1L24.6 27.2C24.6 27.5 24.4 27.5 24.1 27.5C24.1 27.7 23.3 27.4 23.3 27.4L22.6 28.7L24.1 29.1L24.9 29.2L24.4 31.1L25.6 31.4L26.1 29.5C26.3 29.7 26.7 29.8 27 29.8L26.5 31.7L27.7 32L28.3 30C30.3 30.3 31.7 30.3 32.4 28.4C32.9 26.9 32.4 26.1 31.3 25.6C32.1 25.5 32.8 24.7 32.8 23.9C32.9 22.6 31.9 21.8 30.6 21.2Z" />
		</g>
		<g id="Layer">
			<path id="Layer" class="shp2" d="M53 12.1L44.8 25.7L53 22L53 12.1Z" />
			<path id="Layer" class="shp3" d="M53 22L44.8 25.7L53 30.6L53 22Z" />
			<path id="Layer" class="shp3" d="M61.2 25.7L53 12.1L53 22L61.2 25.7Z" />
			<path id="Layer" class="shp4" d="M53 30.6L61.2 25.7L53 22L53 30.6Z" />
			<path id="Layer" class="shp2" d="M44.8 27.3L53 38.9L53 32.1L44.8 27.3Z" />
			<path id="Layer" class="shp3" d="M53 32.1L53 38.9L61.2 27.3L53 32.1Z" />
		</g>
	</g>
</svg>