<svg width="106" height="51" viewBox="0 0 106 51" fill="none" xmlns="http://www.w3.org/2000/svg">
<path d="M39.2852 38.9603C39.1664 38.8398 39.0228 38.7474 38.8595 38.6798C38.6945 38.6138 38.5146 38.5808 38.3199 38.5808C38.216 38.5808 38.1087 38.589 37.9982 38.6072C37.886 38.6253 37.7771 38.6567 37.6698 38.7012C37.5626 38.7458 37.4619 38.8085 37.3646 38.8877C37.2672 38.9669 37.1847 39.0675 37.1121 39.188C36.9966 38.9982 36.8415 38.8497 36.6452 38.7408C36.4488 38.6336 36.2244 38.5791 35.9703 38.5791C35.8845 38.5791 35.7971 38.5874 35.7063 38.6022C35.6156 38.6171 35.5248 38.6451 35.4357 38.6831C35.3466 38.721 35.2608 38.7722 35.1783 38.8382C35.0975 38.9042 35.0232 38.9867 34.9556 39.0857V38.6682H34.2395V42.0821H34.9638V40.1895C34.9638 40.0443 34.9869 39.9156 35.0331 39.8034C35.0793 39.6912 35.1404 39.5955 35.2179 39.5196C35.2955 39.4437 35.3846 39.386 35.4885 39.3464C35.5925 39.3068 35.703 39.287 35.8202 39.287C36.0644 39.287 36.2525 39.3645 36.3878 39.518C36.5214 39.6731 36.5891 39.8925 36.5891 40.1813V42.0804H37.3134V40.1879C37.3134 40.0427 37.3365 39.914 37.3827 39.8018C37.4289 39.6896 37.49 39.5939 37.5675 39.518C37.6451 39.4421 37.7342 39.3843 37.8381 39.3447C37.9421 39.3051 38.0526 39.2853 38.1698 39.2853C38.414 39.2853 38.6021 39.3629 38.7374 39.5163C38.871 39.6714 38.9387 39.8909 38.9387 40.1796V42.0788H39.663V39.9338C39.663 39.7341 39.63 39.551 39.564 39.3843C39.4964 39.2243 39.404 39.0807 39.2852 38.9603Z" fill="#1D1D1B"/>
<path d="M43.1033 39.0841C42.9845 38.9323 42.8376 38.8102 42.6611 38.7195C42.4845 38.6287 42.275 38.5825 42.0308 38.5825C41.7915 38.5825 41.5671 38.6271 41.3609 38.7162C41.1546 38.8053 40.9731 38.929 40.8197 39.0891C40.6646 39.2475 40.5441 39.4372 40.4567 39.6567C40.3692 39.8761 40.3247 40.117 40.3247 40.3777C40.3247 40.6384 40.3692 40.8793 40.4567 41.0988C40.5441 41.3182 40.6662 41.508 40.8197 41.6664C40.9748 41.8248 41.1546 41.9502 41.3609 42.0393C41.5671 42.1284 41.7915 42.1729 42.0308 42.1729C42.275 42.1729 42.4862 42.1284 42.6611 42.0376C42.8376 41.9469 42.9845 41.8264 43.1033 41.6746V42.0838H43.8474V38.67H43.1033V39.0841ZM43.0752 40.8117C43.0257 40.9453 42.9548 41.0592 42.8657 41.1565C42.7749 41.2539 42.6677 41.3298 42.5423 41.3859C42.4169 41.442 42.2766 41.47 42.1215 41.47C41.9598 41.47 41.8163 41.4403 41.6892 41.3826C41.5622 41.3248 41.4549 41.2456 41.3675 41.1466C41.28 41.0476 41.2124 40.9321 41.1645 40.7985C41.1167 40.6648 41.0936 40.5246 41.0936 40.3744C41.0936 40.2243 41.1167 40.084 41.1645 39.9504C41.2124 39.8167 41.28 39.7012 41.3675 39.6022C41.4549 39.5032 41.5622 39.4257 41.6892 39.3663C41.8163 39.3085 41.9598 39.2788 42.1215 39.2788C42.2766 39.2788 42.4152 39.3069 42.5423 39.363C42.6677 39.4191 42.7766 39.495 42.8657 39.5923C42.9564 39.6897 43.0257 39.8052 43.0752 39.9372C43.1247 40.0708 43.1495 40.2144 43.1495 40.3711C43.1495 40.5279 43.1247 40.678 43.0752 40.8117Z" fill="#1D1D1B"/>
<path d="M47.2712 40.3711C47.0616 40.2078 46.7712 40.1005 46.3983 40.0444L46.0452 39.9916C45.966 39.9801 45.8934 39.9669 45.8241 39.9504C45.7548 39.9355 45.6954 39.9141 45.6459 39.8877C45.5964 39.8613 45.5568 39.8283 45.5271 39.7887C45.4974 39.7491 45.4826 39.6979 45.4826 39.6385C45.4826 39.5181 45.5387 39.4191 45.6525 39.3448C45.7647 39.2706 45.9231 39.2326 46.1277 39.2326C46.235 39.2326 46.3389 39.2425 46.4429 39.2607C46.5468 39.2805 46.6442 39.3036 46.7366 39.3316C46.829 39.3597 46.9131 39.391 46.989 39.4257C47.0649 39.4603 47.1293 39.4933 47.1821 39.523L47.5022 38.9422C47.324 38.8284 47.1161 38.7393 46.8785 38.6766C46.6409 38.6139 46.3884 38.5825 46.1195 38.5825C45.9017 38.5825 45.7053 38.6073 45.5321 38.6584C45.3588 38.7096 45.2103 38.7822 45.0882 38.8762C44.9661 38.9703 44.8721 39.0841 44.8061 39.2194C44.7401 39.3547 44.7087 39.5065 44.7087 39.6748C44.7087 39.9504 44.8061 40.1731 45.0024 40.3431C45.1988 40.513 45.4859 40.6236 45.867 40.6764L46.2234 40.7226C46.428 40.7506 46.5782 40.7968 46.6722 40.8595C46.7679 40.9222 46.8141 41.0031 46.8141 41.1004C46.8141 41.2291 46.7481 41.3298 46.6178 41.4057C46.4874 41.4799 46.2927 41.5179 46.037 41.5179C45.8967 41.5179 45.7713 41.508 45.6608 41.4898C45.5502 41.47 45.4496 41.4453 45.3572 41.4139C45.2664 41.3826 45.1839 41.3446 45.1113 41.3034C45.0387 41.2621 44.9711 41.2176 44.91 41.1697L44.5652 41.7291C44.6889 41.8215 44.8176 41.8974 44.9529 41.9535C45.0882 42.0096 45.2219 42.0558 45.3522 42.0871C45.4826 42.1185 45.6063 42.1399 45.7235 42.1515C45.839 42.1614 45.9413 42.168 46.0304 42.168C46.2746 42.168 46.494 42.1399 46.6871 42.0855C46.8801 42.031 47.0435 41.9535 47.1755 41.8561C47.3075 41.7571 47.4081 41.64 47.4791 41.503C47.5484 41.3661 47.5847 41.2159 47.5847 41.0526C47.5847 40.7622 47.4807 40.5345 47.2712 40.3711Z" fill="#1D1D1B"/>
<path d="M54.2441 39.0777C54.1022 38.9193 53.9322 38.7972 53.7342 38.7114C53.5362 38.624 53.3184 38.5811 53.0808 38.5811C52.8284 38.5811 52.599 38.624 52.3911 38.7114C52.1832 38.7989 52.005 38.921 51.8549 39.0777C51.7047 39.2361 51.5892 39.4259 51.5051 39.6453C51.4226 39.8664 51.3797 40.109 51.3797 40.3763C51.3797 40.6469 51.4226 40.8927 51.5084 41.1138C51.5942 41.3349 51.713 41.523 51.8681 41.6798C52.0232 41.8365 52.2063 41.957 52.4208 42.0428C52.6353 42.1286 52.8696 42.1715 53.127 42.1715C53.3861 42.1715 53.6319 42.1352 53.8662 42.0642C54.1005 41.9933 54.3216 41.8679 54.5312 41.6897L54.1599 41.1584C54.018 41.2722 53.8596 41.3613 53.688 41.424C53.5164 41.4867 53.3448 41.5181 53.1732 41.5181C53.0528 41.5181 52.9356 41.5016 52.8234 41.4686C52.7112 41.4356 52.6106 41.3844 52.5198 41.3135C52.4291 41.2442 52.3532 41.1534 52.2888 41.0445C52.2245 40.9356 52.1799 40.8036 52.1568 40.6485H54.6797C54.6846 40.6056 54.6879 40.5611 54.6912 40.5132C54.6929 40.4654 54.6945 40.4175 54.6945 40.3713C54.6945 40.1057 54.6549 39.8631 54.5757 39.642C54.4949 39.4259 54.3843 39.2361 54.2441 39.0777ZM52.1618 40.0842C52.1816 39.9605 52.2146 39.8466 52.2608 39.7443C52.3086 39.6404 52.3697 39.5513 52.4439 39.477C52.5182 39.4028 52.6073 39.345 52.7112 39.3038C52.8152 39.2642 52.9323 39.2427 53.066 39.2427C53.3036 39.2427 53.4966 39.317 53.6468 39.4638C53.7969 39.6107 53.891 39.8186 53.9322 40.0842H52.1618Z" fill="#1D1D1B"/>
<path d="M64.1375 39.0841C64.0187 38.9323 63.8718 38.8102 63.6953 38.7195C63.5187 38.6287 63.3092 38.5825 63.065 38.5825C62.8257 38.5825 62.6013 38.6271 62.3951 38.7162C62.1888 38.8053 62.0073 38.929 61.8539 39.0891C61.6988 39.2475 61.5783 39.4372 61.4909 39.6567C61.4034 39.8761 61.3589 40.117 61.3589 40.3777C61.3589 40.6384 61.4034 40.8793 61.4909 41.0988C61.5783 41.3182 61.7004 41.508 61.8539 41.6664C62.009 41.8248 62.1888 41.9502 62.3951 42.0393C62.6013 42.1284 62.8257 42.1729 63.065 42.1729C63.3092 42.1729 63.5204 42.1284 63.6953 42.0376C63.8718 41.9469 64.0187 41.8264 64.1375 41.6746V42.0838H64.8817V38.67H64.1375V39.0841ZM64.1078 40.8117C64.0583 40.9453 63.9873 41.0592 63.8982 41.1565C63.8075 41.2539 63.7002 41.3298 63.5732 41.3859C63.4478 41.442 63.3075 41.47 63.1524 41.47C62.9907 41.47 62.8472 41.4403 62.7201 41.3826C62.5931 41.3248 62.4858 41.2456 62.3984 41.1466C62.3109 41.0476 62.2433 40.9321 62.1954 40.7985C62.1476 40.6648 62.1245 40.5246 62.1245 40.3744C62.1245 40.2243 62.1476 40.084 62.1954 39.9504C62.2433 39.8167 62.3109 39.7012 62.3984 39.6022C62.4858 39.5032 62.5931 39.4257 62.7201 39.3663C62.8472 39.3085 62.9907 39.2788 63.1524 39.2788C63.3075 39.2788 63.4478 39.3069 63.5732 39.363C63.6986 39.4191 63.8075 39.495 63.8982 39.5923C63.989 39.6897 64.0583 39.8052 64.1078 39.9372C64.1573 40.0708 64.182 40.2144 64.182 40.3711C64.182 40.5279 64.1589 40.678 64.1078 40.8117Z" fill="#1D1D1B"/>
<path d="M50.4639 41.4025C50.3435 41.4471 50.2263 41.4702 50.1092 41.4702C50.0333 41.4702 49.9623 41.4586 49.898 41.4339C49.832 41.4108 49.7759 41.3728 49.7264 41.3217C49.6769 41.2705 49.6389 41.2045 49.6109 41.1237C49.5828 41.0428 49.568 40.9455 49.568 40.8316V39.3466H50.7642V38.6701H49.568V37.6372H48.8205V38.6701H48.1407V39.3466H48.8205V40.8465C48.8205 41.3002 48.9278 41.6352 49.1423 41.8497C49.3568 42.0642 49.6587 42.1714 50.0448 42.1714C50.261 42.1714 50.4557 42.1384 50.6273 42.0724C50.7411 42.0279 50.8467 41.9784 50.9457 41.9223L50.6916 41.2986C50.619 41.3382 50.5448 41.3728 50.4639 41.4025Z" fill="#1D1D1B"/>
<path d="M57.1877 38.5811C56.9781 38.5811 56.79 38.619 56.6217 38.6949C56.4534 38.7708 56.3115 38.954 56.1977 39.1173V38.6702H55.5212V42.084H56.2043V40.2063C56.2043 40.0611 56.2241 39.9324 56.2653 39.8186C56.3049 39.7047 56.361 39.609 56.432 39.5298C56.5029 39.4506 56.5887 39.3929 56.6877 39.3516C56.7867 39.312 56.8973 39.2906 57.0161 39.2906C57.1068 39.2906 57.2042 39.3005 57.3081 39.3219C57.3609 39.3335 57.4104 39.3467 57.4583 39.3615L57.6777 38.6487C57.6183 38.6306 57.5573 38.6141 57.4946 38.6025C57.4038 38.5893 57.3015 38.5811 57.1877 38.5811Z" fill="#1D1D1B"/>
<path d="M67.5398 38.5811C67.3302 38.5811 67.1421 38.619 66.9738 38.6949C66.8055 38.7708 66.6636 38.954 66.5498 39.1173V38.6702H65.8733V42.084H66.5564V40.2063C66.5564 40.0611 66.5762 39.9324 66.6174 39.8186C66.657 39.7047 66.7131 39.609 66.7841 39.5298C66.855 39.4506 66.9408 39.3929 67.0398 39.3516C67.1388 39.312 67.2494 39.2906 67.3682 39.2906C67.4589 39.2906 67.5563 39.3005 67.6602 39.3219C67.713 39.3335 67.7625 39.3467 67.8104 39.3615L68.0298 38.6487C67.9704 38.6306 67.9094 38.6141 67.8467 38.6025C67.7559 38.5893 67.6536 38.5811 67.5398 38.5811Z" fill="#1D1D1B"/>
<path d="M71.018 37.2824V39.0826C70.8992 38.9308 70.7523 38.8087 70.5758 38.7179C70.3992 38.6272 70.1897 38.581 69.9455 38.581C69.7062 38.581 69.4818 38.6255 69.2756 38.7146C69.0693 38.8037 68.8878 38.9275 68.7344 39.0875C68.5793 39.2459 68.4588 39.4357 68.3714 39.6551C68.2839 39.8746 68.2394 40.1155 68.2394 40.3762C68.2394 40.6369 68.2839 40.8778 68.3714 41.0972C68.4588 41.3167 68.5809 41.5064 68.7344 41.6648C68.8895 41.8232 69.0693 41.9486 69.2756 42.0377C69.4818 42.1268 69.7062 42.1714 69.9455 42.1714C70.1897 42.1714 70.4009 42.1268 70.5758 42.0361C70.7507 41.9453 70.8992 41.8249 71.018 41.6731V42.0823H71.7621V37.2808H71.018V37.2824ZM70.9883 40.8118C70.9388 40.9454 70.8678 41.0593 70.7787 41.1566C70.688 41.254 70.5807 41.3299 70.4553 41.386C70.3299 41.4421 70.1897 41.4701 70.0346 41.4701C69.8729 41.4701 69.7293 41.4404 69.6023 41.3827C69.4752 41.3249 69.368 41.2457 69.2805 41.1467C69.1931 41.0477 69.1254 40.9322 69.0776 40.7986C69.0297 40.6649 69.0066 40.5247 69.0066 40.3745C69.0066 40.2244 69.0297 40.0841 69.0776 39.9505C69.1254 39.8168 69.1931 39.7013 69.2805 39.6023C69.368 39.5033 69.4752 39.4258 69.6023 39.3664C69.7293 39.3086 69.8729 39.2789 70.0346 39.2789C70.1897 39.2789 70.3283 39.307 70.4553 39.3631C70.5807 39.4192 70.6896 39.4951 70.7787 39.5924C70.8695 39.6898 70.9388 39.8053 70.9883 39.9373C71.0378 40.0709 71.0625 40.2145 71.0625 40.3712C71.0625 40.528 71.0394 40.6781 70.9883 40.8118Z" fill="#1D1D1B"/>
<path d="M58.9697 39.5874C59.0654 39.4917 59.1776 39.4158 59.3079 39.363C59.4383 39.3102 59.5802 39.2821 59.732 39.2821C59.8986 39.2821 60.0554 39.3085 60.1989 39.363C60.3375 39.4141 60.458 39.4867 60.5603 39.5791L60.9183 38.9835C60.7847 38.8762 60.6329 38.7888 60.4646 38.7195C60.2402 38.6287 59.996 38.5825 59.732 38.5825C59.468 38.5825 59.2238 38.6287 58.9994 38.7195C58.775 38.8102 58.5819 38.9373 58.4186 39.0973C58.2552 39.2574 58.1282 39.4471 58.0358 39.6649C57.9434 39.8827 57.8972 40.1203 57.8972 40.3777C57.8972 40.6351 57.9434 40.8711 58.0358 41.0905C58.1282 41.3083 58.2569 41.4981 58.4186 41.6581C58.5819 41.8182 58.775 41.9452 58.9994 42.036C59.2238 42.1267 59.468 42.1729 59.732 42.1729C59.996 42.1729 60.2402 42.1267 60.4646 42.036C60.6329 41.9667 60.7847 41.8792 60.9183 41.772L60.5603 41.1763C60.458 41.2687 60.3375 41.3397 60.1989 41.3925C60.0554 41.4453 59.9003 41.4733 59.732 41.4733C59.5802 41.4733 59.4383 41.4469 59.3079 41.3925C59.1776 41.3397 59.0637 41.2638 58.9697 41.1681C58.874 41.0724 58.7997 40.9569 58.7453 40.8232C58.6908 40.6896 58.6628 40.5411 58.6628 40.3794C58.6628 40.2177 58.6908 40.0708 58.7453 39.9355C58.7997 39.7986 58.874 39.6831 58.9697 39.5874Z" fill="#1D1D1B"/>
<path d="M73.3313 41.5845C73.3808 41.5845 73.427 41.5944 73.4715 41.6125C73.5144 41.6307 73.5524 41.6554 73.5854 41.6868C73.6184 41.7181 73.6431 41.7544 73.6613 41.7973C73.6794 41.8402 73.6893 41.8848 73.6893 41.9326C73.6893 41.9805 73.6794 42.025 73.6613 42.0679C73.6431 42.1108 73.6167 42.1471 73.5854 42.1785C73.5524 42.2098 73.5144 42.2346 73.4715 42.2544C73.4286 42.2725 73.3824 42.2824 73.3313 42.2824C73.2801 42.2824 73.2339 42.2725 73.1894 42.2544C73.1448 42.2362 73.1069 42.2115 73.0755 42.1785C73.0425 42.1471 73.0178 42.1092 72.9996 42.0679C72.9815 42.025 72.9716 41.9805 72.9716 41.9326C72.9716 41.8848 72.9815 41.8402 72.9996 41.7973C73.0178 41.7544 73.0425 41.7181 73.0755 41.6868C73.1085 41.6554 73.1465 41.6307 73.1894 41.6125C73.2323 41.5927 73.2801 41.5845 73.3313 41.5845ZM73.3313 42.1834C73.3659 42.1834 73.3989 42.1768 73.4286 42.1636C73.4583 42.1504 73.4864 42.1323 73.5078 42.1092C73.5309 42.0861 73.5474 42.0597 73.5606 42.03C73.5738 42.0003 73.5804 41.9673 73.5804 41.931C73.5804 41.8963 73.5738 41.8633 73.5606 41.8336C73.5474 41.8023 73.5293 41.7759 73.5078 41.7544C73.4847 41.7313 73.4583 41.7148 73.4286 41.7016C73.3989 41.6884 73.3659 41.6818 73.3313 41.6818C73.295 41.6818 73.262 41.6884 73.2323 41.7016C73.2009 41.7148 73.1745 41.733 73.1514 41.7544C73.1283 41.7775 73.1102 41.8039 73.0986 41.8336C73.0854 41.865 73.0788 41.8963 73.0788 41.931C73.0788 41.9656 73.0854 41.9986 73.0986 42.03C73.1118 42.0597 73.13 42.0877 73.1514 42.1092C73.1745 42.1323 73.2009 42.1504 73.2323 42.1636C73.262 42.1768 73.295 42.1834 73.3313 42.1834ZM73.3511 41.7775C73.394 41.7775 73.4253 41.7874 73.4468 41.8056C73.4682 41.8237 73.4798 41.8501 73.4798 41.8815C73.4798 41.9062 73.4715 41.926 73.4567 41.9425C73.4402 41.959 73.4187 41.9689 73.3874 41.9739L73.4831 42.0844H73.3791L73.2933 41.9772H73.2834V42.0844H73.196V41.7759H73.3511V41.7775ZM73.2834 41.8534V41.9095H73.3478C73.361 41.9095 73.3709 41.9079 73.3791 41.9029C73.3857 41.898 73.3907 41.8914 73.3907 41.8815C73.3907 41.8716 73.3874 41.865 73.3791 41.86C73.3725 41.8551 73.361 41.8534 73.3478 41.8534H73.2834Z" fill="#1D1D1B"/>
<path d="M48.0929 22.715C48.0929 18.6263 50.0036 14.9847 52.9769 12.6285C50.784 10.8911 48.0137 9.85156 44.9975 9.85156C37.8926 9.85156 32.1341 15.6117 32.1341 22.715C32.1341 29.8182 37.8942 35.5784 44.9975 35.5784C48.012 35.5784 50.784 34.5389 52.9769 32.8014C50.0036 30.4452 48.0929 26.8053 48.0929 22.715Z" fill="#E20D17"/>
<path d="M52.9769 32.8013C55.6742 32.8013 57.8609 28.2855 57.8609 22.7149C57.8609 17.1443 55.6742 12.6284 52.9769 12.6284C50.2795 12.6284 48.0929 17.1443 48.0929 22.7149C48.0929 28.2855 50.2795 32.8013 52.9769 32.8013Z" fill="#EA610A"/>
<path d="M72.9485 29.6732V29.297H72.7967V29.1931H73.2141V29.297H73.0623V29.6732H72.9485ZM73.7553 29.6732V29.3399L73.6481 29.627H73.5293L73.422 29.3399V29.6716H73.3098V29.1914H73.4715L73.5903 29.4983L73.7091 29.1914H73.8708V29.6716H73.7553V29.6732Z" fill="#F59E00"/>
<path d="M60.9563 9.85156C57.9417 9.85156 55.1697 10.8911 52.9769 12.6285C55.9518 14.9847 57.8609 18.6263 57.8609 22.715C57.8609 26.8037 55.9502 30.4452 52.9769 32.8014C55.1697 34.5389 57.9401 35.5784 60.9563 35.5784C68.0612 35.5784 73.8197 29.8182 73.8197 22.715C73.8197 15.6117 68.0612 9.85156 60.9563 9.85156Z" fill="#F59E00"/>
</svg>
