<svg width="106" height="51" viewBox="0 0 106 51" fill="none" xmlns="http://www.w3.org/2000/svg">
<path d="M84.5885 18.4229C83.7107 17.8257 82.3765 17.5095 80.6561 17.5095H76.0916L74.4063 26.7136H68.4375L68.8237 24.6058H72.405L72.8263 22.2521H69.2099L69.5961 20.1794H73.3179L73.8094 17.4744H66.2957L64.6806 26.1867H61.9419L63.5571 17.4744H59.6246L58.0095 26.1867H55.306L56.9211 17.4744H52.9887L51.2682 26.6785H45.2994L45.6856 24.5707H49.302L49.7234 22.2169H46.1069L46.4932 20.1091H50.25L50.7065 17.4744H27.2875L25.9533 24.8166L23.2849 17.5095H19.212L17 29.4186H20.8973L22.2315 21.9359L24.7946 29.4186H38.7688L40.4892 20.2145H42.6661L40.9456 29.4186H77.7067L78.7601 23.6222L80.4805 29.4186H84.4129L82.6223 24.6761L83.0085 24.6058C83.9214 24.395 84.6236 24.0086 85.1151 23.3762C85.6067 22.7439 85.8525 21.9359 85.8525 20.9874C85.8525 19.8281 85.4311 18.985 84.5885 18.4229ZM35.3981 26.7136H29.4293L29.8155 24.6058H33.5723L33.9937 22.2521H30.2719L30.623 20.1794H36.5919L35.3981 26.7136ZM81.3934 22.7088C81.0072 22.9898 80.4454 23.0952 79.6378 23.0952H78.8654L79.4623 19.8984H80.0241C80.6561 19.8984 81.1476 20.0037 81.4636 20.2145C81.7094 20.3902 82.0254 20.7063 82.0254 21.3387C82.0254 22.1116 81.6743 22.498 81.3934 22.7088Z" fill="#83BA3B"/>
<path d="M87.608 28.6458L87.5027 26.7839L88.3454 26.7487C88.4858 26.7487 88.5911 26.7487 88.7316 26.7839C88.8018 26.819 88.9071 26.8541 88.9422 26.9595C89.0125 27.0298 89.0125 27.1352 89.0476 27.2406C89.0476 27.346 89.0125 27.4865 88.9422 27.5919C88.8369 27.6973 88.6965 27.7675 88.556 27.8026C88.6262 27.8378 88.6614 27.8378 88.7316 27.8729C88.8018 27.9432 88.9071 28.0134 88.9422 28.1188L89.2933 28.6106H88.9774L88.6965 28.2242C88.6262 28.1188 88.556 28.0134 88.4858 27.9783C88.4507 27.9432 88.4156 27.908 88.3454 27.8729C88.3102 27.8378 88.2751 27.8378 88.24 27.8378C88.2049 27.8378 88.1347 27.8378 88.0996 27.8378H87.8187L87.8538 28.6809L87.608 28.6458ZM87.8187 27.5919L88.3454 27.5567C88.4156 27.5567 88.5209 27.5567 88.6262 27.5216C88.6965 27.4865 88.7316 27.4513 88.7667 27.4162C88.8018 27.3811 88.8018 27.3108 88.8018 27.2406C88.8018 27.1703 88.7667 27.0649 88.6965 27.0298C88.6262 26.9595 88.4858 26.9595 88.3805 26.9595L87.7836 26.9947L87.8187 27.5919Z" fill="#83BA3B"/>
<path d="M88.1698 25.9056C87.2218 25.9407 86.4493 26.7839 86.5196 27.7324C86.5547 28.6809 87.3973 29.4538 88.3453 29.3835C89.2933 29.3484 90.0658 28.5053 89.9955 27.5567C89.9604 26.6082 89.1178 25.8705 88.1698 25.9056ZM86.8005 27.7324C86.7302 26.9244 87.3622 26.2218 88.1347 26.1867C88.9422 26.1164 89.6444 26.7487 89.6796 27.5216C89.6796 27.5567 89.6796 27.5567 89.6796 27.5919C89.6796 27.627 89.6796 27.627 89.6796 27.6621C89.6796 28.4701 89.0124 29.1025 88.2049 29.1025C87.4676 29.1025 86.8356 28.5053 86.8005 27.7324Z" fill="#83BA3B"/>
</svg>
