<svg width="106" height="51" viewBox="0 0 106 51" fill="none" xmlns="http://www.w3.org/2000/svg">
<path d="M15.1313 24.1187C15.1313 23.375 15.3438 22.7375 15.6626 22.4187C15.8751 22.2062 16.0876 22.1 16.3001 21.9937C16.6188 21.8875 16.8313 21.7812 17.1501 21.7812H20.2313C21.6126 21.7812 22.3563 22.525 22.3563 24.0125V28.6875C22.3563 29.2188 22.1438 29.6438 21.7188 30.0688C21.2938 30.4938 20.8688 30.7062 20.3376 30.7062H17.3626V34H15.1313C15.1313 34 15.1313 24.1187 15.1313 24.1187ZM20.1251 24.5437C20.1251 24.225 19.9126 24.0125 19.5938 24.0125H18.0001C17.5751 24.0125 17.3626 24.225 17.3626 24.65V27.7313C17.3626 28.1563 17.5751 28.3687 18.0001 28.3687H19.5938C19.8063 28.3687 19.9126 28.2625 20.0188 28.1562C20.1251 28.05 20.2313 27.9437 20.2313 27.8375V24.5437H20.1251Z" fill="#1B8CCB"/>
<path d="M29.1563 24.5437C29.1563 24.225 28.9438 24.0125 28.5188 24.0125H24.1626V21.7812H29.1563C30.6438 21.7812 31.2813 22.525 31.3876 23.9062V28.5812C31.3876 29.2187 31.1751 29.6438 30.8563 30.0688C30.5376 30.4938 30.0063 30.7062 29.4751 30.7062H26.5001C25.0126 30.7062 24.2688 30.0688 24.2688 28.6875V26.8813C24.2688 25.5 25.0126 24.7563 26.3938 24.7563H29.2626V24.5437H29.1563ZM26.2876 27.9438C26.2876 28.05 26.3938 28.1563 26.5001 28.2625C26.6063 28.3688 26.7126 28.3687 26.9251 28.3687H28.6251C29.0501 28.3687 29.1563 28.2625 29.2626 27.9438V27.4125C29.2626 27.0938 29.0501 26.8813 28.6251 26.8813H26.9251C26.7126 26.8813 26.6063 26.8812 26.5001 26.9875C26.3938 27.0937 26.3938 27.2 26.3938 27.5187V27.9438H26.2876Z" fill="#1B8CCB"/>
<path d="M37.4437 31.7687C37.6562 31.7687 37.7624 31.6625 37.8687 31.5562C37.9749 31.45 38.0812 31.3438 38.0812 31.2375V31.025V30.7062H35.3187C34.9999 30.7062 34.6812 30.7063 34.4687 30.6C34.2562 30.4938 34.0437 30.3875 33.8312 30.175C33.6187 29.9625 33.4062 29.6437 33.4062 29.4312C33.2999 29.2188 33.2999 28.9 33.2999 28.5812V21.7812H35.5312V27.7313C35.5312 28.1563 35.7437 28.475 36.1687 28.475H37.7624C37.9749 28.475 38.0812 28.3688 38.1874 28.2625C38.2937 28.1563 38.3999 28.05 38.3999 27.8375V27.625V21.7812H40.5249V31.5562C40.5249 32.3 40.3124 32.8313 39.9937 33.2563C39.2499 33.7875 38.8249 34 38.1874 34H33.0874V31.7687H37.4437Z" fill="#1B8CCB"/>
<path d="M41.9061 28.475H45.8373C46.1561 28.475 46.3686 28.3688 46.3686 28.05V27.8375C46.3686 27.7313 46.3686 27.7313 46.3686 27.625C46.2623 27.4125 46.1561 27.4125 46.0498 27.4125H45.8373H44.1373C43.6061 27.4125 43.0748 27.2 42.6498 26.775C42.2248 26.4563 42.0123 26.0313 42.0123 25.5V23.8C42.0123 22.525 42.7561 21.7812 44.1373 21.7812H48.5998V24.0125H44.7748C44.3498 24.0125 44.1373 24.1188 44.1373 24.4375V24.65C44.1373 24.9688 44.3498 25.075 44.8811 25.075H46.6873C47.2186 25.075 47.6436 25.2875 47.9623 25.7125C48.2811 26.1375 48.4936 26.5625 48.4936 27.0938V28.6875C48.4936 29.1125 48.2811 29.6438 47.8561 30.0688C47.6436 30.2813 47.4311 30.4938 47.2186 30.4938C47.0061 30.6 46.6873 30.6 46.3686 30.6H41.7998L41.9061 28.475Z" fill="#1B8CCB"/>
<path d="M55.1876 24.5437C55.1876 24.225 54.9751 24.0125 54.5501 24.0125H50.1938V21.7812H55.1876C56.6751 21.7812 57.3126 22.525 57.4189 23.9062V28.5812C57.4189 29.2187 57.2064 29.6438 56.8876 30.0688C56.5689 30.4938 56.0376 30.7062 55.5064 30.7062H52.5314C51.0438 30.7062 50.3001 30.0688 50.3001 28.6875V26.8813C50.3001 25.5 51.0439 24.7563 52.4251 24.7563H55.1876V24.5437ZM52.3188 27.9438C52.3188 28.05 52.4251 28.1563 52.5314 28.2625C52.6376 28.3688 52.7439 28.3687 52.9564 28.3687H54.6564C55.0814 28.3687 55.1876 28.2625 55.2939 27.9438V27.4125C55.2939 27.0938 55.0814 26.8813 54.6564 26.8813H52.9564C52.7439 26.8813 52.6376 26.8812 52.5314 26.9875C52.4251 27.0937 52.4251 27.2 52.4251 27.5187V27.9438H52.3188Z" fill="#1B8CCB"/>
<path d="M59.1189 20.5061C59.1189 19.8686 59.3314 19.4436 59.7564 19.0186C60.1814 18.6998 60.7127 18.4873 61.4564 18.4873H62.8377V20.6123H61.9877C61.5627 20.6123 61.2439 20.8248 61.2439 21.2498V21.6748H62.8377V23.9061H61.2439V30.4936H59.0127V20.5061H59.1189Z" fill="#1B8CCB"/>
<path d="M66.3436 27.625V27.7313C66.3436 27.9438 66.3436 28.05 66.4498 28.1563C66.5561 28.2625 66.6623 28.3688 66.7686 28.3688H67.0873H71.3373V30.6H66.5561C66.1311 30.6 65.8123 30.6 65.4936 30.4938C65.2811 30.3875 64.9623 30.2813 64.7498 30.0688C64.5373 29.8563 64.3248 29.5375 64.2186 29.325C64.1123 29.1125 64.1123 28.6875 64.1123 28.2625V23.8C64.1123 22.4188 64.8561 21.7812 66.2373 21.7812H69.2123C70.5936 21.7812 71.2311 22.525 71.3373 23.9063V25.7125L66.3436 27.625ZM69.1061 24.5438C69.1061 24.3313 69.1061 24.3313 68.9998 24.225C68.8936 24.1188 68.7873 24.1188 68.5748 24.1188H67.0873C66.8748 24.1188 66.7686 24.225 66.6623 24.3313C66.5561 24.4375 66.4498 24.5438 66.4498 24.7563V25.5L69.1061 24.5438Z" fill="#1B8CCB"/>
<path d="M75.9063 30.7062C75.5875 30.7062 75.2688 30.7063 74.95 30.6C74.6313 30.6 74.4188 30.3875 74.1 30.175C73.7813 29.9625 73.5687 29.6438 73.4625 29.325C73.3562 29.0063 73.25 28.6875 73.25 28.2625V24.0125C73.25 23.6937 73.25 23.375 73.3562 23.1625C73.4625 22.95 73.5688 22.6312 73.7813 22.4187C73.9938 22.2062 74.3125 21.9937 74.6313 21.8875C74.95 21.7812 75.2687 21.7812 75.5875 21.7812H78.9875V22.3125H75.6938C75.1625 22.3125 74.6313 22.4188 74.3125 22.6313C73.9938 22.8438 73.7813 23.375 73.7813 24.0125V28.1562C73.7813 28.475 73.7812 28.6875 73.8875 29.0063C73.9937 29.325 74.1 29.5375 74.3125 29.75C74.525 29.9625 74.7375 30.0688 75.0562 30.0688C75.2687 30.0688 75.5875 30.175 75.8 30.175H78.8813V30.7062H75.9063Z" fill="#1B8CCB"/>
<path d="M88.1249 28.2625C88.1249 28.5813 88.1249 28.9 88.0187 29.1125C87.9124 29.4312 87.8062 29.6437 87.5937 29.9625C87.1687 30.4937 86.5312 30.7062 85.8937 30.7062H83.2374C82.5999 30.7062 81.9624 30.4938 81.5374 30.0688C81.1124 29.6438 80.8999 29.1125 80.8999 28.3687V27.0938C80.8999 25.6063 81.6437 24.7563 83.1312 24.7563H87.4874V24.1187C87.4874 23.5875 87.3812 23.1625 87.0624 22.8438C86.8499 22.6313 86.6374 22.4187 86.4249 22.3125C86.3187 22.3125 86.1062 22.3125 85.7874 22.3125H81.0062V21.7812H85.4687C85.8937 21.7812 86.2124 21.7812 86.6374 21.8875C86.8499 21.8875 86.9562 21.9938 87.0624 22.1C87.1687 22.2063 87.3812 22.3125 87.4874 22.525C87.9124 22.95 88.1249 23.5875 88.1249 24.225V28.2625ZM87.5937 25.2875H83.2374C82.7062 25.2875 82.2812 25.5 81.9624 25.8188C81.6437 26.1375 81.5374 26.5625 81.5374 27.0938V28.475C81.5374 28.6875 81.5374 29.0062 81.6437 29.2188C81.7499 29.4313 81.8562 29.6438 82.0687 29.8563C82.4937 30.175 82.9187 30.2812 83.3437 30.2812H85.9999C87.0624 30.2812 87.6999 29.6438 87.6999 28.475L87.5937 25.2875Z" fill="#1B8CCB"/>
<path d="M93.0123 22.3125C91.8436 22.3125 91.2061 22.95 91.2061 24.3313V30.7062H90.6748V24.3313C90.6748 22.6313 91.4186 21.7812 93.1186 21.7812H93.6498V22.3125H93.0123Z" fill="#1B8CCB"/>
<path d="M102.362 28.1563C102.362 29.8563 101.406 30.7063 99.7062 30.6001H97.7937C97.3687 30.6001 97.0499 30.6001 96.7312 30.4938C96.4124 30.3876 96.0937 30.1751 95.7749 29.8563C95.5624 29.5376 95.3499 29.3251 95.3499 29.0063C95.2437 28.6876 95.2437 28.3688 95.2437 28.0501V24.3313C95.2437 22.6313 96.0937 21.7813 97.7937 21.7813H101.937V18.9126H102.469L102.362 28.1563ZM101.937 22.3126H97.7937C97.4749 22.3126 97.2624 22.3126 96.9437 22.4188C96.7312 22.5251 96.4124 22.6313 96.1999 22.8438C95.9874 23.0563 95.8812 23.2688 95.7749 23.4813C95.6687 23.6938 95.6687 24.0126 95.6687 24.3313V28.3688C95.6687 29.0063 95.8812 29.5376 96.3062 29.7501C96.5187 29.8563 96.7312 29.9626 96.9437 29.9626C97.1562 30.0688 97.4749 30.0688 97.7937 30.0688H99.5999C100.237 30.0688 100.875 29.9626 101.3 29.6438C101.725 29.3251 101.937 28.7938 101.937 28.1563V22.3126Z" fill="#1B8CCB"/>
<path d="M3.01885 21.4625C3.23135 21.3562 3.3376 21.3562 3.5501 21.25C3.86885 19.7625 5.2501 18.5938 6.84385 18.5938C8.4376 18.5938 9.81885 19.7625 10.1376 21.25C10.6688 21.3562 10.9876 21.5687 11.3063 21.8875C11.3063 21.5687 11.3063 21.3562 11.3063 21.0375C10.9876 18.8063 9.0751 17 6.7376 17C4.4001 17 2.4876 18.9125 2.38135 21.25C2.38135 21.4625 2.38135 21.675 2.38135 21.8875C2.4876 21.7812 2.7001 21.5687 3.01885 21.4625Z" fill="#C11718"/>
<path d="M9.39375 21.7812H4.08125C3.86875 21.7812 3.55 21.8875 3.3375 21.9937C3.01875 22.1 2.80625 22.2062 2.59375 22.4188C2.275 22.8438 2.0625 23.375 2.0625 24.1188V28.2625C2.0625 29.0063 2.275 29.6438 2.59375 29.9625C2.80625 30.175 3.01875 30.2813 3.23125 30.3875C3.55 30.4938 3.7625 30.6 3.975 30.6H9.2875C10.6687 30.6 11.4125 29.8563 11.4125 28.3688V24.1188C11.4125 22.525 10.775 21.7812 9.39375 21.7812Z" fill="#C11718"/>
</svg>
