<svg width="106" height="51" viewBox="0 0 106 51" fill="none" xmlns="http://www.w3.org/2000/svg">
<path d="M68.4521 17.5711L72.378 16.8682V31.8346H68.4521V17.5711ZM74.1852 17.5711V31.8553H78.1111V16.8682L74.1852 17.5711ZM62.8644 31.8553H66.7903V20.8992H62.8644V31.8553ZM36.9616 22.4496C36.4631 22.4083 35.3206 22.3463 35.3206 21.3127C35.3206 20.0724 36.9824 20.0724 37.5848 20.0724C38.6649 20.0724 40.0774 20.3824 41.0952 20.6925C41.0952 20.6925 41.6561 20.8992 42.1338 21.0853L42.1754 21.1059V21.0646V17.6951L42.1131 17.6744C40.9291 17.261 39.5373 16.8682 36.9824 16.8682C32.5579 16.8682 31 19.4315 31 21.6227C31 22.8837 31.5401 25.8605 36.6085 26.2119C37.0447 26.2326 38.1664 26.2946 38.1664 27.3695C38.1664 28.2377 37.2316 28.7545 35.6737 28.7545C33.9496 28.7545 32.2879 28.3204 31.27 27.907V31.4005C32.7864 31.7933 34.4897 32 36.5046 32C40.8252 32 42.757 29.5814 42.757 27.1628C42.757 24.4548 40.5967 22.677 36.9616 22.4496ZM60.6626 20.7339C57.0482 20.8579 55.1995 22.4703 55.1995 25.6744V31.8346H59.1462V26.8114C59.1462 24.8889 59.3955 24.062 61.7012 23.9793V20.7959C61.3065 20.7132 60.6626 20.7339 60.6626 20.7339ZM50.0272 20.8786C49.9442 21.1059 49.321 22.863 47.7839 24.6822V16.8682L43.7333 17.6744V31.8553H47.7839V27.4729C48.9471 29.23 49.5287 31.8553 49.5287 31.8553H54.3686C53.8909 29.8708 51.7929 26.2119 51.7929 26.2119C53.6831 23.8346 54.4932 21.3127 54.6386 20.8786H50.0272ZM64.8377 19.845C65.8971 19.845 66.7696 18.9767 66.7696 17.9225C66.7696 16.8682 65.8971 16 64.8377 16C63.7784 16 62.9059 16.8682 62.9059 17.9225C62.9059 18.9767 63.7576 19.845 64.8377 19.845Z" fill="#862165"/>
</svg>
