<svg width="106" height="51" viewBox="0 0 106 51" fill="none" xmlns="http://www.w3.org/2000/svg">
<path d="M51.8704 20.4186C51.8704 22.7561 53.9898 24.1373 55.5794 24.8811C57.2749 25.7311 57.8048 26.1561 57.8048 26.8998C57.8048 27.9623 56.5331 28.4936 55.2614 28.4936C53.142 28.4936 51.8704 27.9623 50.9166 27.4311L50.1748 31.0436C51.1286 31.4686 53.0361 31.8936 54.9435 31.8936C59.3943 31.8936 62.3615 29.6623 62.3615 26.2623C62.3615 21.9061 56.4271 21.6936 56.4271 19.7811C56.4271 19.1436 56.957 18.6123 58.2286 18.3998C58.8645 18.2936 60.56 18.2936 62.3615 19.1436L63.1033 15.6373C62.0436 15.2123 60.7719 14.8936 59.1824 14.8936C54.8376 14.9998 51.8704 17.2311 51.8704 20.4186ZM70.2034 15.3186C69.3556 15.3186 68.7198 15.7436 68.4019 16.4873L62.0436 31.6811H66.4944L67.3422 29.2373H72.7467L73.2765 31.6811H77.1975L73.8064 15.3186H70.2034ZM70.8392 19.7811L72.1109 25.9436H68.6138L70.8392 19.7811ZM46.4658 15.3186L42.9688 31.7873H47.2076L50.7047 15.3186H46.4658ZM40.2135 15.3186L35.7628 26.4748L33.9612 16.9123C33.7493 15.8498 32.9015 15.2123 32.0538 15.2123H24.8477L24.7418 15.7436C26.2254 16.0623 27.9209 16.5936 28.9806 17.1248C29.6164 17.4436 29.8284 17.7623 30.0403 18.6123L33.4314 31.7873H37.7762L44.6643 15.3186H40.2135Z" fill="#005A9C"/>
</svg>
